<svg width="2796" height="512" viewBox="0 0 2796 512" fill="none" xmlns="http://www.w3.org/2000/svg">
<path d="M806.035 466.903V147.54C806.035 135.318 802.829 126.249 796.416 120.335C790.004 114.027 780.786 110.873 768.762 110.873H699.024V47H783.19C818.059 47 844.111 55.6741 861.345 73.0222C878.98 89.976 887.797 115.407 887.797 149.314V466.903H806.035ZM687 466.903V403.03H989.999V466.903H687Z" fill="white"/>
<path d="M1201.38 474C1171.32 474 1144.67 467.297 1121.42 453.892C1098.58 440.092 1080.54 420.773 1067.32 395.934C1054.49 371.094 1048.08 341.918 1048.08 308.404C1048.08 275.68 1054.49 246.898 1067.32 222.058C1080.14 197.219 1097.98 177.899 1120.82 164.1C1143.67 149.906 1170.12 142.809 1200.18 142.809C1229.84 142.809 1255.89 149.709 1278.34 163.508C1301.18 177.308 1319.02 196.825 1331.84 222.058C1344.67 246.898 1351.08 276.271 1351.08 310.179V330.287H1132.25C1134.25 353.943 1141.46 372.08 1153.89 384.697C1166.71 396.919 1183.15 403.03 1203.19 403.03C1218.02 403.03 1230.64 399.679 1241.06 392.976C1251.48 385.88 1258.7 376.417 1262.7 364.589L1344.47 369.911C1333.64 403.03 1316.01 428.658 1291.56 446.795C1267.51 464.932 1237.45 474 1201.38 474ZM1133.45 275.285H1263.91C1261.9 254.783 1255.09 239.406 1243.47 229.155C1231.84 218.904 1217.21 213.778 1199.58 213.778C1181.14 213.778 1166.11 219.101 1154.49 229.747C1143.27 239.998 1136.25 255.177 1133.45 275.285Z" fill="white"/>
<path d="M1513.77 474C1494.13 474 1476.09 470.452 1459.66 463.355C1443.23 456.258 1430.2 446.006 1420.58 432.601C1411.36 419.196 1406.76 403.228 1406.76 384.697C1406.76 357.886 1415.37 336.989 1432.61 322.007C1450.24 307.024 1474.29 296.379 1504.75 290.071L1601.54 269.371C1601.54 249.263 1597.33 233.886 1588.92 223.241C1580.9 212.596 1567.67 207.273 1549.24 207.273C1533.21 207.273 1520.78 211.216 1511.96 219.101C1503.15 226.987 1497.33 237.435 1494.53 250.446L1410.36 245.715C1416.37 214.567 1431.4 189.728 1455.45 171.197C1479.9 152.271 1510.76 142.809 1548.03 142.809C1594.53 142.809 1628.59 154.44 1650.24 177.702C1672.28 200.57 1683.3 232.704 1683.3 274.102V385.88C1683.3 393.765 1684.7 399.285 1687.51 402.439C1690.32 405.199 1694.52 406.579 1700.14 406.579H1713.36V466.903C1710.96 467.297 1706.95 467.692 1701.34 468.086C1695.73 468.874 1689.92 469.269 1683.9 469.269C1667.87 469.269 1654.24 466.509 1643.02 460.989C1631.8 455.469 1623.18 447.386 1617.17 436.741C1611.56 426.096 1608.35 413.282 1607.55 398.299H1616.57C1614.57 412.493 1609.16 425.504 1600.34 437.332C1591.52 448.766 1579.7 457.835 1564.87 464.537C1550.04 470.846 1533 474 1513.77 474ZM1530.6 413.676C1545.83 413.676 1558.66 411.113 1569.08 405.988C1579.5 400.468 1587.51 392.582 1593.12 382.331C1598.73 371.686 1601.54 359.266 1601.54 345.072V326.147L1530 341.524C1515.57 344.678 1505.35 349.212 1499.34 355.126C1493.33 361.04 1490.32 369.517 1490.32 380.557C1490.32 390.808 1493.73 398.891 1500.54 404.805C1507.35 410.719 1517.37 413.676 1530.6 413.676Z" fill="white"/>
<path d="M1760.02 466.903L1874.25 304.856L1764.83 149.906H1853.8L1919.94 249.855L1985.47 149.906H2074.44L1966.83 304.856L2079.85 466.903H1991.48L1919.94 358.675L1849 466.903H1760.02Z" fill="white"/>
<path d="M2282.82 474C2252.76 474 2226.11 467.297 2202.86 453.892C2180.02 440.092 2161.98 420.773 2148.75 395.934C2135.93 371.094 2129.52 341.918 2129.52 308.404C2129.52 275.68 2135.93 246.898 2148.75 222.058C2161.58 197.219 2179.41 177.899 2202.26 164.1C2225.1 149.906 2251.56 142.809 2281.62 142.809C2311.28 142.809 2337.33 149.709 2359.77 163.508C2382.62 177.308 2400.45 196.825 2413.28 222.058C2426.1 246.898 2432.52 276.271 2432.52 310.179V330.287H2213.68C2215.69 353.943 2222.9 372.08 2235.33 384.697C2248.15 396.919 2264.58 403.03 2284.62 403.03C2299.45 403.03 2312.08 399.679 2322.5 392.976C2332.92 385.88 2340.13 376.417 2344.14 364.589L2425.9 369.911C2415.08 403.03 2397.45 428.658 2373 446.795C2348.95 464.932 2318.89 474 2282.82 474ZM2214.88 275.285H2345.34C2343.34 254.783 2336.53 239.406 2324.9 229.155C2313.28 218.904 2298.65 213.778 2281.02 213.778C2262.58 213.778 2247.55 219.101 2235.93 229.747C2224.7 239.998 2217.69 255.177 2214.88 275.285Z" fill="white"/>
<path d="M2580.77 466.903V149.906H2640.89L2647.51 232.704H2642.1C2645.3 205.104 2653.32 184.405 2666.14 170.605C2679.37 156.806 2698.61 149.906 2723.86 149.906H2796V215.553H2729.87C2714.64 215.553 2702.01 218.115 2691.99 223.241C2681.97 228.367 2674.56 236.055 2669.75 246.306C2664.94 256.557 2662.54 269.371 2662.54 284.748V466.903H2580.77ZM2503.82 466.903V403.03H2760.53V466.903H2503.82ZM2503.82 213.778V149.906H2629.47V213.778H2503.82Z" fill="white"/>
<path d="M416.304 0L94.8107 2.81609e-05C-9.11684 3.72643e-05 -37.1644 143.461 59.0821 182.749L213.662 245.85C237.275 255.489 256.011 274.261 265.631 297.92L328.608 452.802C367.819 549.237 511 521.135 511 417.004L511 94.8809C511 42.4796 468.603 -4.58107e-06 416.304 0Z" fill="white"/>
</svg>
